# xmcd CD database file
#
# Track frame offsets:
#	150
#	14390
#	25966
#	42315
#	64327
#	77570
#	90860
#	104810
#	122651
#	140899
#	155101
#	169591
#	183636
#	200570
#	219229
#	233234
#	245860
#	260599
#	277865
#	291620
#	307786
#
# Disc length: 4254 seconds
#
# Revision: 0
# Processed by: cddbd v1.5.2PL0 Copyright (c) Steve Scherf et al.
# Submitted via: CDex 1.51
#
DISCID=3a109c15
DTITLE=Various Artist - Two Step Music
DYEAR=2002
DGENRE=Country
TTITLE0=I'm No Good - Brooks and Dunn
TTITLE1=Take Your Memory With You - Vince Gil
TTITLE2=Can't Break It To My Heart - Tracy Lawrence
TTITLE3=You're Gonna Miss Me When I'm Gone - Brooks and Dunn
TTITLE4=Cadillac Style - Sammy Kershaw
TTITLE5=My Next Broken Heart - Brooks and Dunn
TTITLE6=One Heartache At A Time - Brooks and Dunn
TTITLE7=He Thinks He'll Keep Her - Mary Chapin Carpenter
TTITLE8=I'm So Happy I Can't Stop Crying - Toby Keith
TTITLE9=I Left Something Turned On At Home - Trace Adkins
TTITLE10=Leavin' Been A Long Time Comin' - Shenandoah
TTITLE11=Chasing Neon Rainbow - Alan Jackson
TTITLE12=I've Come To Expect It From You - George Strait
TTITLE13=Any Man Of Mine - Shania Twain
TTITLE14=If The World Had A Front Porch - Tracy Lawrence
TTITLE15=Haunted Heart - Sammy Kershaw
TTITLE16=Sparkle - Vince Gill
TTITLE17=Dolores - Mavericks, The
TTITLE18=If Your Heart Ain't Busy Tonight - Tanya Tucker
TTITLE19=Just To See You Smile - Tim McGraw
TTITLE20=I Quit - Vince Gill
EXTD=YEAR: 2002
EXTT0=
EXTT1=
EXTT2=
EXTT3=
EXTT4=
EXTT5=
EXTT6=
EXTT7=
EXTT8=
EXTT9=
EXTT10=
EXTT11=
EXTT12=
EXTT13=
EXTT14=
EXTT15=
EXTT16=
EXTT17=
EXTT18=
EXTT19=
EXTT20=
PLAYORDER=
